<?xml version="1.0" encoding="UTF-8"?>
<svg version="1.1" xmlns="http://www.w3.org/2000/svg" width="500" height="500">
<path d="M0 0 C165 0 330 0 500 0 C500 165 500 330 500 500 C335 500 170 500 0 500 C0 335 0 170 0 0 Z " fill="#EEE7DD" transform="translate(0,0)"/>
<path d="M0 0 C3.38186806 0.69388926 4.74488036 1.74307518 6.9609375 4.40234375 C9.72498993 11.64220131 11.23692531 19.42717233 12.9609375 26.96484375 C13.35176514 28.66326416 13.35176514 28.66326416 13.75048828 30.39599609 C15.78361006 39.35368399 17.52073598 48.33160085 18.9609375 57.40234375 C21.0436857 55.31959555 20.86675707 51.24638814 21.30078125 48.37890625 C21.42779922 47.5629599 21.5548172 46.74701355 21.6856842 45.90634155 C22.09380114 43.2805907 22.49638399 40.65402928 22.8984375 38.02734375 C27.78267792 6.34338564 27.78267792 6.34338564 30.9609375 2.40234375 C34.53564207 0.01920737 35.74647285 -0.24603543 39.9609375 0.40234375 C47.51335806 4.48698622 50.26258465 11.94400118 52.69140625 19.75 C56.47381017 32.47961321 59.40408086 45.37741523 61.9609375 58.40234375 C62.14269531 57.36078125 62.32445312 56.31921875 62.51171875 55.24609375 C63.31971045 50.63000675 64.13808833 46.01580376 64.9609375 41.40234375 C65.15308838 40.32218994 65.15308838 40.32218994 65.34912109 39.22021484 C70.30961155 11.49982701 70.30961155 11.49982701 78.3359375 2.83984375 C80.9609375 1.40234375 80.9609375 1.40234375 84.5234375 1.33984375 C88.63552031 2.61085116 89.88264046 3.66140908 91.9609375 7.40234375 C92.37634188 12.13412427 91.3896015 15.44131804 89.625 19.80859375 C86.79734551 27.39683075 85.46699739 34.88137682 84.3359375 42.90234375 C78.74914972 80.91514981 78.74914972 80.91514981 69.5234375 88.65234375 C66.78750011 90.49898806 64.94273797 91.40689363 61.7109375 92.21484375 C57.70609713 91.03159546 56.01275498 88.8639584 53.9609375 85.40234375 C48.56786308 75.3294725 46.34590159 63.94362499 43.60791016 52.94287109 C42.79252967 49.74104117 41.89364489 46.57178071 40.9609375 43.40234375 C39.68823915 48.2973374 38.59167843 53.19508517 37.5859375 58.15234375 C35.42140605 68.21041527 33.2763418 77.77342213 25.9609375 85.40234375 C22.01115923 87.37723289 17.26677258 86.83292726 12.9609375 86.40234375 C7.33778509 83.53094677 5.2177535 77.97550087 3.20507812 72.25341797 C1.0487081 65.30724795 -0.22209779 58.31900675 -1.4140625 51.15234375 C-2.9943118 41.97399284 -4.71059693 32.85671572 -6.7890625 23.77734375 C-6.99966309 22.85405273 -7.21026367 21.93076172 -7.42724609 20.97949219 C-8.39366958 16.57224104 -8.39366958 16.57224104 -10.0390625 12.40234375 C-10.41359882 8.43225872 -10.36654025 6.04365435 -8.5390625 2.46484375 C-5.65873269 0.08857166 -3.71870804 -0.28339597 0 0 Z " fill="#5472FE" transform="translate(161.0390625,199.59765625)"/>
<path d="M0 0 C7.7681341 2.87576086 13.12560299 6.84587297 17.16796875 14.12890625 C19.34239256 18.97787134 20.47313924 23.06858194 19.23046875 28.31640625 C14.70747351 39.15514756 6.68834181 43.8260343 -3.44921875 48.82421875 C-6.12250099 50.54340025 -6.65258293 51.38601546 -7.76953125 54.31640625 C-8.08690117 57.26717307 -8.08690117 57.26717307 -8.078125 60.5078125 C-8.10326172 61.69955078 -8.12839844 62.89128906 -8.15429688 64.11914062 C-8.18950718 66.62950487 -8.22074511 69.13992792 -8.24804688 71.65039062 C-8.27447266 72.84083984 -8.30089844 74.03128906 -8.328125 75.2578125 C-8.34157959 76.34779541 -8.35503418 77.43777832 -8.36889648 78.56079102 C-8.76953125 81.31640625 -8.76953125 81.31640625 -10.12133789 83.19897461 C-11.76953125 84.31640625 -11.76953125 84.31640625 -14.58203125 84.25390625 C-19.17321142 82.90355914 -22.51814558 80.9848586 -25.41552734 77.12182617 C-27.09639265 73.63916781 -27.18491693 71.04054196 -27.24609375 67.1796875 C-27.26946304 66.16046455 -27.26946304 66.16046455 -27.29330444 65.12065125 C-27.34057525 62.95674871 -27.36844719 60.79315846 -27.39453125 58.62890625 C-27.44325797 55.79153673 -27.49977489 52.95436412 -27.55859375 50.1171875 C-27.57165054 49.43254425 -27.58470734 48.747901 -27.59815979 48.04251099 C-27.69934537 43.48255689 -28.02305236 38.99883214 -28.53808594 34.46948242 C-29.54703488 25.08349007 -30.33988519 14.42573367 -24.76953125 6.31640625 C-17.43931394 -0.73856575 -9.99041743 -2.46589993 0 0 Z " fill="#5472FE" transform="translate(294.76953125,203.68359375)"/>
<path d="M0 0 C2.875 1.625 2.875 1.625 5 5 C6.34234748 14.3584414 4.44026408 23.64379838 2.46630859 32.77734375 C1.95809501 35.19973978 1.50224646 37.62891382 1.05078125 40.0625 C0.72203777 41.77096501 0.39262169 43.47930076 0.0625 45.1875 C-0.0828418 45.98953857 -0.22818359 46.79157715 -0.37792969 47.61791992 C-1.32169297 52.31728246 -2.37646094 55.60674193 -6 59 C-9.5 59.125 -9.5 59.125 -13 58 C-17.74321192 53.13196672 -18.20988898 49.87634454 -18.14697266 43.33837891 C-17.90083096 37.74744613 -17.20840826 32.22534746 -16.45581055 26.68237305 C-16.18575218 24.67450503 -15.93518142 22.66479447 -15.68554688 20.65429688 C-15.51474609 19.36974609 -15.34394531 18.08519531 -15.16796875 16.76171875 C-15.01610107 15.60631592 -14.8642334 14.45091309 -14.70776367 13.26049805 C-13.68440782 8.54614229 -12.05510622 5.08362261 -8.6875 1.625 C-5.38476209 -0.37200432 -3.79429675 -0.71143064 0 0 Z " fill="#5573FE" transform="translate(344,200)"/>
<path d="M0 0 C4.83504646 1.74061672 7.84691328 5.56882656 10.125 10.125 C10.54406739 13.89660651 10.43700824 15.63470134 8.375 18.875 C5.06604852 22.18395148 2.30208349 23.42635202 -2.375 23.5625 C-5.75314351 23.46232441 -6.64761887 23.29692232 -9.4375 21.1875 C-11.38748397 17.03318632 -11.67069821 13.63660885 -10.875 9.125 C-8.34319545 4.24223408 -5.77704385 0.25117582 0 0 Z " fill="#5573FE" transform="translate(332.875,266.875)"/>
</svg>
